<svg width="2584" height="796" xmlns="http://www.w3.org/2000/svg" xmlns:xlink="http://www.w3.org/1999/xlink" xml:space="preserve" overflow="hidden"><defs><filter id="fx0" x="-10%" y="-10%" width="120%" height="120%" filterUnits="userSpaceOnUse" primitiveUnits="userSpaceOnUse"><feComponentTransfer color-interpolation-filters="sRGB"><feFuncR type="discrete" tableValues="0 0"/><feFuncG type="discrete" tableValues="0.85098 0.85098"/><feFuncB type="discrete" tableValues="1 1"/><feFuncA type="linear" slope="0.4" intercept="0"/></feComponentTransfer><feGaussianBlur stdDeviation="7.63889 7.63889"/></filter><filter id="fx1" x="-10%" y="-10%" width="120%" height="120%" filterUnits="userSpaceOnUse" primitiveUnits="userSpaceOnUse"><feComponentTransfer color-interpolation-filters="sRGB"><feFuncR type="discrete" tableValues="0 0"/><feFuncG type="discrete" tableValues="0.85098 0.85098"/><feFuncB type="discrete" tableValues="1 1"/><feFuncA type="linear" slope="0.4" intercept="0"/></feComponentTransfer><feGaussianBlur stdDeviation="6.51941 6.51941"/></filter><clipPath id="clip2"><rect x="975" y="1427" width="2584" height="796"/></clipPath><clipPath id="clip3"><rect x="131" y="72" width="400" height="655"/></clipPath><clipPath id="clip4"><rect x="0" y="0" width="662" height="796"/></clipPath><clipPath id="clip5"><rect x="23" y="23" width="616" height="750"/></clipPath><clipPath id="clip6"><rect x="23" y="23" width="616" height="750"/></clipPath><clipPath id="clip7"><rect x="23" y="-139" width="616" height="1075"/></clipPath><clipPath id="clip8"><rect x="1127" y="1457" width="604" height="736"/></clipPath><clipPath id="clip9"><rect x="1127" y="1457" width="604" height="736"/></clipPath><clipPath id="clip10"><rect x="1127" y="1298" width="604" height="1054"/></clipPath><clipPath id="clip11"><rect x="172" y="158" width="1318" height="243"/></clipPath><clipPath id="clip12"><rect x="0" y="0" width="1664" height="632"/></clipPath></defs><g clip-path="url(#clip2)" transform="translate(-975 -1427)"><g clip-path="url(#clip3)" filter="url(#fx0)" transform="translate(1098 1427)"><g clip-path="url(#clip4)"><g clip-path="url(#clip5)"><g clip-path="url(#clip6)"><g clip-path="url(#clip7)"><path d="M441.967 815.294C423.696 804.677 354.314 764.43 287.896 725.666 211.601 681.469 163.207 651.84 156.54 645.42 150.121 639.001 144.442 630.112 140.985 621.223 136.047 607.643 135.8 603.693 136.294 521.472L137.035 435.794 161.725 421.721C175.305 413.82 186.416 406.165 186.416 404.684 186.416 403.449 177.034 395.795 165.429 388.141 134.812 367.401 135.553 370.117 136.294 299.007L137.035 239.502 193.824 272.341C373.82 376.042 446.165 419.252 455.794 428.634 462.214 434.807 467.893 443.942 471.349 452.831 476.288 466.164 476.534 471.102 476.534 551.842L476.534 637.025 450.609 652.087C436.288 660.482 424.19 668.136 423.449 669.123 422.708 670.358 431.844 677.518 443.696 685.666 477.522 708.135 476.534 705.419 476.534 775.541 476.534 808.133 476.288 834.552 475.794 834.552 475.547 834.552 460.238 825.911 441.967 815.294ZM441.967 748.628 441.967 726.653 416.536 710.357C402.462 701.469 389.376 693.321 387.153 692.58 381.474 690.358 342.216 713.567 345.673 717.024 349.87 721.221 435.548 770.109 439.004 770.356 441.226 770.356 441.967 764.43 441.967 748.628ZM361.228 663.198C389.869 646.161 419.992 628.383 427.893 623.692L441.967 615.05 441.967 588.631C441.967 564.434 441.72 562.459 437.523 563.446 435.054 564.187 404.931 582.705 370.857 604.68 336.537 626.408 307.155 644.433 305.673 644.433 303.945 644.186 282.464 631.099 258.02 615.05L213.576 586.162 212.342 560.237C211.354 541.718 210.366 534.805 208.144 535.052 206.416 535.546 197.28 540.731 187.651 546.904L170.367 558.014 170.367 577.026C170.367 600.73 173.33 612.087 181.725 619.989 188.885 626.902 300.982 693.567 305.673 693.567 307.402 693.814 332.34 679.987 361.228 663.198ZM336.043 584.187 364.191 565.915 364.932 537.768 365.672 509.373 336.537 491.843C320.488 481.966 306.661 474.065 305.673 474.065 303.451 474.065 256.785 503.201 251.106 508.139 247.403 511.595 246.909 515.546 247.403 539.249L248.144 566.162 276.291 584.434C291.846 594.31 305.18 602.458 306.167 602.458 307.155 602.458 320.488 594.31 336.043 584.187ZM423.449 528.879 440.733 517.274 441.473 501.225C442.708 478.51 440.239 465.423 433.078 457.029 426.906 449.621 311.352 380.24 305.673 380.487 303.945 380.487 273.081 398.017 237.033 419.252L171.602 458.016 170.861 485.917C170.614 500.978 171.108 513.571 172.342 513.571 173.577 513.571 184.441 507.151 196.54 499.003 239.255 470.855 304.439 431.844 307.402 432.585 308.883 433.078 330.364 445.671 355.055 460.485L399.746 487.645 399.993 514.312C399.993 533.817 400.733 540.731 403.202 540.484 404.684 540.484 414.066 535.299 423.449 528.879ZM245.921 372.586C265.674 361.722 269.131 358.512 263.946 355.302 239.008 339.747 175.799 303.945 173.577 303.698 168.639 303.698 169.133 346.66 174.071 350.611 179.997 355.549 223.206 382.215 225.675 382.462 226.909 382.709 236.045 378.265 245.921 372.586Z" fill="#00D9FF" transform="matrix(1.00178 0 0 -1 24.2891 935.081)"/></g></g></g></g></g><g clip-path="url(#clip8)"><g clip-path="url(#clip9)"><g clip-path="url(#clip10)"><path d="M433.301 799.307C415.388 788.899 347.367 749.442 282.251 711.437 207.452 668.107 160.007 639.059 153.471 632.765 147.177 626.471 141.61 617.757 138.221 609.042 133.379 595.729 133.137 591.855 133.621 511.247L134.348 427.249 158.554 413.452C171.868 405.705 182.761 398.201 182.761 396.749 182.761 395.539 173.563 388.034 162.185 380.53 132.169 360.197 132.895 362.859 133.621 293.144L134.348 234.806 190.023 267.001C366.49 368.669 437.416 411.031 446.857 420.229 453.151 426.281 458.718 435.238 462.107 443.952 466.949 457.024 467.191 461.865 467.191 541.021L467.191 624.535 441.774 639.301C427.734 647.531 415.872 655.035 415.146 656.003 414.42 657.214 423.376 664.234 434.996 672.222 468.159 694.25 467.191 691.587 467.191 760.335 467.191 792.288 466.949 818.189 466.464 818.189 466.222 818.189 451.214 809.716 433.301 799.307ZM433.301 733.949 433.301 712.405 408.368 696.429C394.57 687.714 381.741 679.726 379.562 679 373.995 676.821 335.506 699.576 338.895 702.965 343.01 707.08 427.007 755.009 430.396 755.251 432.575 755.251 433.301 749.442 433.301 733.949ZM354.145 650.194C382.225 633.491 411.757 616.062 419.503 611.463L433.301 602.991 433.301 577.089C433.301 553.367 433.059 551.43 428.944 552.398 426.523 553.125 396.991 571.28 363.586 592.824 329.938 614.126 301.132 631.797 299.68 631.797 297.985 631.555 276.925 618.725 252.961 602.991L209.389 574.669 208.178 549.252C207.21 531.096 206.242 524.319 204.063 524.561 202.369 525.045 193.412 530.128 183.971 536.18L167.027 547.073 167.027 565.712C167.027 588.951 169.932 600.086 178.162 607.832 185.182 614.61 295.081 679.968 299.68 679.968 301.374 680.21 325.823 666.654 354.145 650.194ZM329.454 572.732 357.05 554.819 357.776 527.223 358.502 499.386 329.938 482.199C314.204 472.516 300.648 464.77 299.68 464.77 297.501 464.77 251.75 493.334 246.183 498.175 242.552 501.564 242.068 505.437 242.552 528.676L243.278 555.061 270.874 572.974C286.124 582.657 299.196 590.645 300.164 590.645 301.132 590.645 314.204 582.657 329.454 572.732ZM415.146 518.509 432.091 507.132 432.817 491.397C434.027 469.127 431.607 456.298 424.587 448.067 418.535 440.805 305.247 372.784 299.68 373.026 297.985 373.026 267.727 390.213 232.385 411.031L168.237 449.036 167.511 476.389C167.269 491.155 167.753 503.501 168.963 503.501 170.174 503.501 180.825 497.207 192.686 489.219 234.564 461.623 298.469 423.376 301.374 424.103 302.827 424.587 323.887 436.932 348.093 451.456L391.908 478.084 392.15 504.227C392.15 523.35 392.876 530.128 395.297 529.886 396.749 529.886 405.948 524.803 415.146 518.509ZM241.099 365.28C260.465 354.629 263.854 351.482 258.77 348.335 234.322 333.085 172.352 297.985 170.174 297.743 165.332 297.743 165.816 339.863 170.658 343.736 176.467 348.577 218.829 374.721 221.25 374.963 222.46 375.205 231.417 370.848 241.099 365.28Z" fill="#00D9FF" transform="matrix(1.00178 0 0 -1 1128.3 2351.55)"/></g></g></g><g clip-path="url(#clip11)" filter="url(#fx1)" transform="translate(1435 1549)"><g clip-path="url(#clip12)"><path d="M105.273-187.854C131.234-187.854 153.501-178.41 172.076-159.521 190.651-140.633 199.939-118.03 199.939-91.7114 199.939-64.9455 190.584-42.2078 171.875-23.4985 153.166-4.78923 130.428 4.56543 103.662 4.56543 77.0752 4.56543 54.3823-4.83398 35.5835-23.6328 16.7847-42.4316 7.38525-65.1245 7.38525-91.7114 7.38525-118.567 16.8518-141.305 35.7849-159.924 54.718-178.544 77.8808-187.854 105.273-187.854ZM103.662-133.874C92.4723-133.874 82.9386-129.757 75.061-121.521 67.1834-113.285 63.2446-103.349 63.2446-91.7114 63.2446-80.0741 67.2058-70.1375 75.1282-61.9018 83.0505-53.6662 92.5618-49.5483 103.662-49.5483 114.941-49.5483 124.497-53.6438 132.33-61.8347 140.163-70.0256 144.08-79.9845 144.08-91.7114 144.08-103.438 140.163-113.397 132.33-121.588 124.497-129.779 114.941-133.874 103.662-133.874ZM222.032-183.289 276.549-183.289 276.549-74.3896C276.549-65.8854 277.914-60.2234 280.644-57.4036 283.374-54.5837 288.768-53.1738 296.825-53.1738L299.644-53.1738 299.644 0 285.142 0C265.269 0 249.783-5.7963 238.682-17.3889 227.582-28.9815 222.032-45.0724 222.032-65.6616ZM372.548-183.289 372.548 0 318.031 0 318.031-183.289ZM555.487-102.722 607.453-102.722C618.643-88.8468 624.237-74.2106 624.237-58.8135 624.237-40.9098 617.68-25.8708 604.566-13.6963 591.451-1.52181 575.316 4.56543 556.159 4.56543 531.273 4.56543 510.146-4.87874 492.78-23.7671 475.413-42.6554 466.73-65.6616 466.73-92.7856 466.73-119.999 475.57-142.647 493.25-160.73 510.93-178.813 533.018-187.854 559.516-187.854 568.557-187.854 578.583-186.019 589.594-182.349L589.594-127.832C581-131.86 573.167-133.874 566.095-133.874 553.294-133.874 542.843-129.891 534.742-121.924 526.64-113.957 522.589-103.617 522.589-90.9058 522.589-77.9256 526.349-67.631 533.869-60.022 541.388-52.4129 551.549-48.6084 564.35-48.6084 572.496-48.6084 576.569-50.9806 576.569-55.7251 576.569-59.3058 573.883-61.0962 568.512-61.0962L555.487-61.0962ZM712.78-91.98 712.78-43.6401 697.069-43.6401 697.069 0 642.553 0 642.553-116.553C642.553-139.111 648.707-156.634 661.016-169.122 673.325-181.61 690.624-187.854 712.914-187.854 734.399-187.854 750.288-182.192 760.583-170.868 770.877-159.544 776.025-142.065 776.025-118.433L776.025 0 721.508 0 721.508-114.807C721.508-121.969 720.657-126.937 718.957-129.712 717.256-132.487 714.212-133.874 709.826-133.874 701.322-133.874 697.069-127.519 697.069-114.807L697.069-91.98ZM805.261 0 805.261-132.129C805.261-148.511 810.229-161.894 820.166-172.278 830.102-182.662 842.993-187.854 858.838-187.854 877.637-187.854 892.094-179.215 902.209-161.938 908.386-171.248 915.01-177.895 922.082-181.879 929.154-185.862 937.882-187.854 948.267-187.854 964.738-187.854 977.36-182.662 986.133-172.278 994.905-161.894 999.292-146.944 999.292-127.429L999.292 0 944.775 0 944.775-119.238C944.775-125.146 944.305-129.063 943.365-130.988 942.425-132.912 940.523-133.874 937.659-133.874 932.287-133.874 929.602-129.309 929.602-120.178L929.602 0 875.085 0 875.085-119.238C875.085-125.057 874.593-128.951 873.608-130.92 872.624-132.89 870.699-133.874 867.834-133.874 862.463-133.874 859.778-128.996 859.778-119.238L859.778 0ZM1130.21-111.987 1130.21-71.167 1094.63-71.167C1089.79-71.167 1086.37-70.4508 1084.36-69.0185 1082.34-67.5863 1081.34-65.1693 1081.34-61.7676 1081.34-57.9183 1082.36-55.3894 1084.42-54.1809 1086.48-52.9724 1090.69-52.3682 1097.05-52.3682L1133.7-52.3682 1133.7 0 1090.87 0C1070.73 0 1055.33-4.8116 1044.68-14.4348 1034.02-24.058 1028.7-37.9557 1028.7-56.1279L1028.7-127.966C1028.7-145.512 1033.73-159.119 1043.8-168.787 1053.88-178.455 1068.04-183.289 1086.3-183.289L1133.7-183.289 1133.7-130.652 1098.93-130.652C1089.53-130.652 1084.83-127.608 1084.83-121.521 1084.83-117.94 1085.95-115.456 1088.18-114.069 1090.42-112.681 1094.4-111.987 1100.13-111.987ZM1250.87-184.094 1250.87-131.86C1246.94-133.203 1243.89-133.874 1241.74-133.874 1237.63-133.874 1234.09-132.353 1231.14-129.309 1228.18-126.265 1226.7-122.595 1226.7-118.298 1226.7-114.628 1228.32-109.973 1231.54-104.333L1235.7-97.0825C1243.22-84.0128 1246.98-71.3908 1246.98-59.2163 1246.98-41.4022 1240.65-26.3184 1227.98-13.9648 1215.31-1.61133 1199.85 4.56543 1181.59 4.56543 1172.81 4.56543 1164.13 2.55127 1155.54-1.47705L1155.54-54.5166C1160.73-51.2044 1165.34-49.5483 1169.37-49.5483 1174.11-49.5483 1178.07-50.9135 1181.25-53.6438 1184.43-56.3741 1186.02-59.7982 1186.02-63.916 1186.02-66.6015 1183.47-72.465 1178.36-81.5063 1170.22-95.8293 1166.14-110.152 1166.14-124.475 1166.14-141.752 1172.3-156.634 1184.61-169.122 1196.92-181.61 1211.62-187.854 1228.72-187.854 1236.24-187.854 1243.62-186.601 1250.87-184.094Z" fill="#00D9FF" transform="matrix(1.02 0 0 1.02 189.208 373)"/></g></g><text fill="#00D9FF" font-family="Bauhaus 93,Bauhaus 93_MSFontService,sans-serif" font-weight="400" font-size="275" transform="matrix(1 0 0 1 1636.81 1920)">OLI GAMES</text></g></svg>